<svg xmlns="http://www.w3.org/2000/svg" viewBox="0 0 240 160" role="img" aria-label="Bütçe görseli">
  <defs>
    <linearGradient id="g1" x1="0" x2="1" y1="0" y2="1">
      <stop offset="0" stop-color="#f59e0b"/>
      <stop offset="1" stop-color="#fde68a"/>
    </linearGradient>
    <linearGradient id="bg" x1="0" x2="0" y1="0" y2="1">
      <stop offset="0" stop-color="#0b1220"/>
      <stop offset="1" stop-color="#0b1220" stop-opacity="0.7"/>
    </linearGradient>
    <clipPath id="r">
      <rect x="0" y="0" width="240" height="160" rx="16" ry="16"/>
    </clipPath>
  </defs>
  <g clip-path="url(#r)">
    <rect width="240" height="160" fill="url(#bg)"/>
    <g opacity="0.16">
      <circle cx="210" cy="-10" r="80" fill="url(#g1)"/>
      <circle cx="-20" cy="170" r="90" fill="url(#g1)"/>
    </g>
    <g transform="translate(28,24)">
      <rect x="0" y="0" width="184" height="96" rx="10" fill="#0f172a" stroke="#1f2937"/>
      <g transform="translate(14,12)">
        <circle cx="30" cy="36" r="26" fill="#111827" stroke="#374151"/>
        <path d="M24 36h12M30 30v12" stroke="#f59e0b" stroke-width="3" stroke-linecap="round"/>
        <rect x="68" y="8" width="90" height="12" rx="4" fill="#1f2937"/>
        <rect x="68" y="28" width="74" height="12" rx="4" fill="#1f2937"/>
        <rect x="68" y="48" width="60" height="12" rx="4" fill="#1f2937"/>
        <rect x="68" y="68" width="82" height="8" rx="4" fill="#22c55e"/>
      </g>
    </g>
    <g transform="translate(24,124)">
      <rect x="0" y="0" width="90" height="20" rx="6" fill="#f59e0b"/>
      <text x="45" y="14" text-anchor="middle" font-family="Inter, system-ui, -apple-system, Segoe UI, Roboto" font-size="11" fill="#1e1300">Bütçe Oyunu</text>
    </g>
  </g>
</svg>
